PathFileType	4	(X/Y/Z)	c:/Users/goper/Files/vsCode/490R/osim_files/A04/A04_Fast_06.trc
DataRate	CameraRate	NumFrames	NumMarkers	Units                	OrigDataRate	OrigDataStartFrame	OrigNumFrames
120.00	120.00	4	36	mm	120.0	859	1374
                Frame#	Time	LPSIS			LASIS			LTH1			LTH2			LTH3			LTH4			LLFE			LMFE			LSH1			LSH2			LSH3			LSH4			LLMAL			LMMAL			LCAL			LMTP5			LTOE			LMTP1			RPSIS			RASIS			RTH1			RTH2			RTH3			RTH4			RLFE			RMFE			RSH1			RSH2			RSH3			RSH4			RLMAL			RMMAL			RCAL			RMTP1			RTOE			RMTP5		
		X1	Y1	Z1	X2	Y2	Z2	X3	Y3	Z3	X4	Y4	Z4	X5	Y5	Z5	X6	Y6	Z6	X7	Y7	Z7	X8	Y8	Z8	X9	Y9	Z9	X10	Y10	Z10	X11	Y11	Z11	X12	Y12	Z12	X13	Y13	Z13	X14	Y14	Z14	X15	Y15	Z15	X16	Y16	Z16	X17	Y17	Z17	X18	Y18	Z18	X19	Y19	Z19	X20	Y20	Z20	X21	Y21	Z21	X22	Y22	Z22	X23	Y23	Z23	X24	Y24	Z24	X25	Y25	Z25	X26	Y26	Z26	X27	Y27	Z27	X28	Y28	Z28	X29	Y29	Z29	X30	Y30	Z30	X31	Y31	Z31	X32	Y32	Z32	X33	Y33	Z33	X34	Y34	Z34	X35	Y35	Z35	X36	Y36	Z36

859	7.15000	-1226.66589	1050.98523	349.82068	-1448.98560	994.31238	425.24146	-1291.49658	696.53113	444.27118	-1287.03369	652.41315	440.97406	-1351.92932	686.28949	442.50803	-1340.15417	643.09723	439.14410	-1279.07410	524.20972	426.83957	-1308.68005	527.40662	290.34753	-1228.20520	429.57172	419.59668	-1227.13684	385.94229	415.57297	-1288.59387	421.06119	413.74847	-1279.05408	379.23288	408.83606	-1151.29871	112.81306	353.85577	-1181.05298	115.13347	271.66544	-1093.44202	74.14832	292.69586	-1287.27112	60.39740	400.61487	-1342.17151	74.04901	345.06561	-1328.83740	59.06225	299.26309	-1222.03113	1034.54578	244.34665	-1441.60730	1001.92627	138.89049	-1454.97705	710.23431	108.68172	-1479.12732	674.72406	108.30808	-1508.78979	739.46722	94.10482	-1527.03711	695.65094	97.66441	-1593.31299	576.68549	128.62053	-1610.49084	577.00238	244.89763	-1619.29907	342.42474	137.51213	-1641.30139	300.40280	144.42224	-1675.02808	363.12903	126.00169	-1688.20032	317.33667	131.26285	-1731.52002	127.72414	132.86945	-1763.40417	151.60490	263.36426	-1700.14160	54.45668	216.04958	-1905.06958	152.78766	227.99391	-1910.57312	181.57153	181.37759	-1887.31702	138.69095	112.00694
860	7.15833	-1237.42358	1048.74683	349.40808	-1459.66675	992.68243	424.90033	-1298.44995	696.12158	444.09912	-1293.63245	652.05627	440.70108	-1359.06055	685.30518	442.88965	-1346.65979	642.30530	438.72198	-1284.36487	523.75317	426.60214	-1313.68103	526.49078	289.98676	-1232.12964	429.85144	419.22360	-1231.01123	385.88791	415.37402	-1293.15454	420.48663	413.74057	-1282.77490	378.82141	408.64212	-1152.08606	113.34830	353.58350	-1181.48926	115.37647	271.48541	-1093.89697	74.84921	292.53989	-1287.48328	60.30815	400.67004	-1342.44397	73.74481	345.13940	-1329.02979	58.84315	299.23996	-1233.20325	1032.13818	243.96735	-1453.03223	1000.28302	138.53886	-1464.44849	707.61652	109.45377	-1488.12402	671.85565	109.08070	-1518.36292	736.19647	94.60370	-1536.57849	692.11896	98.10131	-1601.69092	573.46741	131.18690	-1617.56982	572.97443	248.01077	-1632.46045	340.27145	138.87215	-1655.80884	298.65274	145.82135	-1687.58191	362.14993	127.42181	-1702.32373	316.85840	132.39095	-1750.72900	128.55191	133.08203	-1782.82825	152.76071	263.56421	-1722.24890	53.90889	216.25533	-1924.20337	158.05809	227.19154	-1928.54053	187.29343	180.58641	-1905.93591	144.04440	111.21456
861	7.16667	-1248.33386	1046.49597	348.74918	-1470.37561	990.95142	424.64352	-1305.57788	695.71021	443.90552	-1300.63354	651.58649	440.47510	-1366.05457	684.29785	441.97784	-1353.57385	641.35547	438.51819	-1290.19971	523.27228	426.31192	-1319.87341	525.72412	289.83331	-1236.86743	429.76401	419.04556	-1235.04749	385.92719	415.14914	-1297.70190	419.84915	413.48071	-1286.83325	378.33511	408.47610	-1152.73511	114.23325	353.61661	-1182.32043	115.86116	271.33945	-1094.29810	75.76007	292.48730	-1287.73596	60.21087	400.70813	-1342.72754	73.40294	345.22278	-1329.30054	58.58318	299.24945	-1244.36035	1029.81616	243.33015	-1464.71118	998.78784	138.30406	-1474.25171	705.38177	110.23737	-1497.95312	669.15356	110.05505	-1527.44031	732.74103	94.50862	-1546.05762	688.83765	98.78798	-1610.22571	570.23926	133.43503	-1624.30151	569.05328	250.81680	-1644.80664	338.00864	140.20798	-1669.35815	296.65698	147.20166	-1699.48535	360.94275	128.73224	-1715.20862	316.03351	133.51390	-1768.20068	128.82445	133.48091	-1800.38025	153.44165	263.90964	-1741.89331	53.34873	216.55463	-1941.55286	162.20538	226.80830	-1944.85547	191.82170	180.25940	-1922.87170	148.24936	110.81328
862	7.17500	-1259.28650	1044.30786	347.96194	-1481.05408	989.37238	424.48352	-1313.67542	695.00165	443.88678	-1308.17139	650.95685	440.24362	-1374.04980	683.15637	442.20758	-1361.05444	640.50494	438.02390	-1296.32532	522.74561	426.16183	-1326.12109	524.69403	289.56998	-1241.81970	429.92401	418.92020	-1239.59204	386.01648	414.93008	-1302.66064	419.27673	413.27353	-1291.20508	377.79626	408.35382	-1153.57507	115.26788	353.66016	-1183.20642	116.58359	271.20663	-1094.78833	77.11893	292.39542	-1288.04407	60.14016	400.81198	-1343.19458	73.03854	345.28381	-1329.63416	58.35769	299.30347	-1255.74377	1027.56213	242.46809	-1476.64355	997.37006	138.22833	-1485.85706	702.60706	111.50822	-1508.23877	666.65247	111.06078	-1538.41626	729.84723	95.58296	-1556.86475	685.86127	100.03205	-1619.03003	566.98431	135.26950	-1631.25073	566.02997	253.51802	-1656.50781	335.52200	141.59381	-1681.89429	294.53949	148.53226	-1711.62109	359.64832	130.90446	-1727.31445	314.77371	134.76926	-1783.72498	128.54492	134.33185	-1816.01929	153.65709	264.56592	-1759.32324	52.51154	217.31326	-1956.86218	165.12805	226.94202	-1959.45044	194.98105	180.45233	-1937.91541	151.22691	110.99205
